<svg xmlns="http://www.w3.org/2000/svg" viewBox="0 0 32 32">
    <title>arduino-visitor-counter</title>
    <path d="M8,14.05c0,3.46,4.84,4.38,7.16,0C12.85,9.5,8,10.6,8,14.05Zm4.74.47H9.8v-1h2.9Z"/>
    <polygon points="7.79 21.52 8.25 21.52 8.02 20.67 7.79 21.52"/>
    <path d="M24.06,20.47c-.39,0-.43.35-.43.8s0,.8.43.8.42-.35.42-.8S24.46,20.47,24.06,20.47Z"/>
    <path d="M10.69,20.51h-.33v.74h.33C11.11,21.26,11.31,20.52,10.69,20.51Z"/>
    <path d="M13,20.5V22q.85,0,.84-.77T13,20.5Z"/>
    <path d="M17,14.05c2,4.42,7,3.38,7.05,0S19.07,9.41,17,14.05Zm5.27.46h-1v1h-1v-1h-1v-1h1v-1h1v1h1Z"/>
    <path d="M16,0A16,16,0,1,0,32,16,16,16,0,0,0,16,0ZM8.57,22.63l-.17-.57H7.66l-.15.57H6.72l.92-2.73h.73l.92,2.73Zm2.57,0-.49-.86h-.28v.86H9.68V19.9h1.07a.92.92,0,0,1,.56,1.72l.62,1Zm2,0h-.8V19.9h.8a1.21,1.21,0,0,1,1.41,1.36A1.21,1.21,0,0,1,13.1,22.63Zm4.07-.9c0,.65-.33.9-1.09.9s-1.07-.26-1.1-.9V19.9h.7v1.8c0,.29.12.41.4.41s.41-.12.39-.41V19.9h.7Zm2.59-1.24h-.68v1.56h.68v.58h-2v-.58h.68V20.49h-.68V19.9h2Zm2.82,2.15h-.75l-.75-1.37L20.93,21v1.64h-.66V19.9H21l.75,1.37.16.28V19.91h.66Zm1.49,0c-.79,0-1.15-.43-1.15-1.37s.37-1.36,1.15-1.36,1.14.43,1.14,1.36S24.85,22.63,24.06,22.63Zm-8-6.89c-3.25,4.88-9.84,3.09-9.84-1.7s6.62-6.82,9.84-1.7c3.4-5.18,9.7-3,9.7,1.69S19.45,20.81,16.07,15.75Z"/>
</svg>