<svg xmlns="http://www.w3.org/2000/svg" viewBox="0 0 32 32">
    <title>bst-ascii-visualization</title>
    <circle cx="16" cy="5.08" r="4.06"/>
    <circle cx="10.03" cy="15.84" r="4.06"/>
    <circle cx="21.97" cy="15.84" r="4.06"/>
    <circle cx="4.06" cy="26.92" r="4.06"/>
    <circle cx="16" cy="26.92" r="4.06"/>
    <circle cx="27.94" cy="26.92" r="4.06"/>
    <path d="M15.35,4.7,3.41,26.54c-.47.85.84,1.61,1.3.76L16.65,5.46c.47-.85-.84-1.61-1.3-.76Z"/>
    <path d="M21.7,14.93,15.35,26.54c-.47.85.84,1.61,1.3.76L23,15.69c.47-.85-.84-1.61-1.3-.76Z"/>
    <path d="M15.59,5.46,27.29,27.3c.46.86,1.76.09,1.3-.76L16.89,4.7c-.46-.86-1.76-.09-1.3.76Z"/>
    <path d="M9.3,16l6,11.28c.46.86,1.76.09,1.3-.76l-6-11.28c-.46-.86-1.76-.09-1.3.76Z"/>
</svg>