<svg xmlns="http://www.w3.org/2000/svg" viewBox="0 0 32 32">
    <title>cp-journey</title>
    <path d="M0,10.83A2.78,2.78,0,0,1,3,9c1.2,0,2.4,0,3.6,0a2.35,2.35,0,0,1,2.59,2.67q0,7.73,0,15.47a2.36,2.36,0,0,1-2.62,2.64c-1.17,0-2.35,0-3.52,0A2.77,2.77,0,0,1,0,28Z"/>
    <path d="M32,28a2.78,2.78,0,0,1-3.05,1.8c-1.2-.06-2.4,0-3.6,0a2.32,2.32,0,0,1-2.54-2.55q0-5.56,0-11.13a2.19,2.19,0,0,1,2.38-2.4c1.31,0,2.62.06,3.93,0A2.52,2.52,0,0,1,32,15.58Z"/>
    <path d="M11.37,15.87q0-5.33,0-10.66c0-2.25.83-3.06,3.07-3.06,1.17,0,2.35,0,3.52,0a2.32,2.32,0,0,1,2.6,2.33,12.79,12.79,0,0,1,.06,1.39q0,10.12,0,20.25c0,3.13-.59,3.72-3.74,3.72h-2.7c-1.85,0-2.7-.73-2.77-2.58-.09-2.35,0-4.7-.05-7C11.36,18.76,11.36,17.31,11.37,15.87Z"/>
</svg>