<svg xmlns="http://www.w3.org/2000/svg" viewBox="0 0 32 32">
    <title>critical-path-method</title>
    <circle cx="6" cy="5.58" r="3.67"/>
    <circle cx="18.87" cy="11.6" r="3.26"/>
    <circle cx="7.6" cy="23.63" r="3.62"/>
    <circle cx="26.17" cy="24.8" r="4.21"/>
    <circle cx="27.08" cy="4.66" r="2.68"/>
    <circle cx="14.35" cy="29.01" r="2.99"/>
    <circle cx="27.08" cy="14.19" r="2.68"/>
    <circle cx="3.98" cy="13.69" r="2.37"/>
    <circle cx="17.04" cy="2.57" r="2.57"/>
    <path d="M6,6.65,17.22,3.24c.85-.26.49-1.6-.37-1.34L5.61,5.31c-.85.26-.49,1.6.37,1.34Z"/>
    <path d="M4.17,14.36l14.89-2.09c.88-.12.51-1.46-.37-1.34L3.8,13c-.88.12-.51,1.46.37,1.34Z"/>
    <path d="M3.31,13.87l3.62,9.94c.3.83,1.65.47,1.34-.37L4.65,13.5c-.3-.83-1.65-.47-1.34.37Z"/>
    <path d="M26.73,13.59,7.25,23c-.81.39-.1,1.59.7,1.2l19.48-9.44c.81-.39.1-1.59-.7-1.2Z"/>
    <path d="M15,29.19l4.52-17.41a.7.7,0,0,0-1.34-.37L13.68,28.82a.7.7,0,0,0,1.34.37Z"/>
    <path d="M27.77,14.22v-10a.7.7,0,0,0-1.39,0v10a.7.7,0,0,0,1.39,0Z"/>
    <path d="M19.54,11.41l-1.83-9c-.18-.88-1.52-.51-1.34.37l1.83,9c.18.88,1.52.51,1.34-.37Z"/>
    <path d="M14.53,29.68l11.83-4.21c.84-.3.48-1.64-.37-1.34L14.16,28.34c-.84.3-.48,1.64.37,1.34Z"/>
</svg>