<svg xmlns="http://www.w3.org/2000/svg" viewBox="0 0 32 32">
    <title>identicon-generator</title>
    <path d="M6.41,19.2q0-2.92,0-5.85c0-.54,0-.55-.51-.55-1.83,0-3.65,0-5.48,0-.3,0-.42,0-.42-.39Q0,6.4,0,.37C0,.1.06,0,.35,0,2.24,0,4.13,0,6,0c.33,0,.41.07.4.4,0,1.86,0,3.71,0,5.57,0,.42,0,.43.44.43,1.86,0,3.72,0,5.57,0,.36,0,.39-.12.39-.42,0-1.86,0-3.71,0-5.57,0-.27,0-.44.37-.43Q16,0,18.83,0c.4,0,.37.16.37.43,0,1.86,0,3.71,0,5.57,0,.3,0,.42.39.42,1.89,0,3.78,0,5.66,0,.27,0,.36-.06.36-.35,0-1.89,0-3.78,0-5.66,0-.33.08-.4.4-.4,1.89,0,3.78,0,5.66,0,.29,0,.34.09.34.36q0,6,0,12.06c0,.36-.12.39-.42.39-1.83,0-3.65,0-5.48,0-.5,0-.51,0-.51.55q0,2.92,0,5.85H19.2c0-2,0-4,0-6,0-.24,0-.38-.33-.38q-2.88,0-5.75,0c-.31,0-.33.13-.33.38,0,2,0,4,0,6Z"/>
    <path d="M12.8,25.6q0,3,0,5.93c0,.46,0,.47-.41.47H.36C.08,32,0,31.92,0,31.65q0-6,0-12c0-.4,0-.41.47-.41H6.41c0,2,0,4,0,6,0,.33.07.4.4.4C8.8,25.59,10.8,25.6,12.8,25.6Z"/>
    <path d="M25.59,19.2h5.93c.46,0,.47,0,.47.41q0,6,0,12c0,.28-.08.35-.35.35h-12c-.4,0-.41,0-.41-.47q0-3,0-5.93c2,0,4,0,6,0,.33,0,.4-.07.4-.4C25.58,23.21,25.59,21.2,25.59,19.2Z"/>
    <path d="M19.2,25.6H12.8V19.2h6.4Z"/>
</svg>