<svg xmlns="http://www.w3.org/2000/svg" viewBox="0 0 32 32">
    <title>teemato</title>
    <path d="M30.93,11c-.67-1.1-2.59-1.89-5.9-2.44l-.41-.07A1.21,1.21,0,0,0,24,7.87l-.24-.11-.34-.16-.25-.1L23,7.4l-.63-.24-1-.32-.14,0h0l-.13,0-.36-.09h0l-.16,0-.28-.06h0l-.16,0-.27-.06-.71-.12-.14,0-.19,0-.43,0-.41,0h-.07c0-.74,0-1.78,0-1.94V4.19a4.54,4.54,0,0,1,0-.55l.12,0a1.2,1.2,0,0,0,.92-.74,1.22,1.22,0,0,0-.12-1.17L18,.54a1.23,1.23,0,0,0-1-.54h-.5a2.19,2.19,0,0,0-2.25,2h0v.24a.28.28,0,0,0,0,.09V6.21A17,17,0,0,0,8,7.86a1.25,1.25,0,0,0-.6.62L7,8.55C3.67,9.1,1.74,9.89,1.08,11c-.94,1.56.09,5.45,1.44,6.53a3,3,0,0,0,1.9.44,17,17,0,0,0,2.86-.3.27.27,0,0,1,.2.22,47.11,47.11,0,0,0-.81,4.83c-.39,3.65-.06,6,1,7C9.36,31.41,13.07,32,16,32s6.63-.59,8.3-2.27c1.08-1.07,1.41-3.37,1-7a44.35,44.35,0,0,0-.82-4.83.29.29,0,0,1,.21-.22,17.18,17.18,0,0,0,2.88.3,3,3,0,0,0,1.9-.44C30.83,16.44,31.87,12.55,30.93,11ZM11.09,8.07a13.74,13.74,0,0,1,3.55-.57h0a.84.84,0,0,0,.57-.23.82.82,0,0,0,.24-.57V2.36a1,1,0,0,1,1-1h.46l.72,1a1.38,1.38,0,0,0-.73.38,1.91,1.91,0,0,0-.38,1.47v.08c0,.19,0,1.73,0,2.38v0a.83.83,0,0,0,.24.58.79.79,0,0,0,.57.23h.47l.37,0,.39,0h.18l.12,0,.66.11.26.06h0l.13,0h0l.26.06h0l.13,0h0l.34.09.1,0h.07l.08,0h0c.3.08.61.18.92.29l.59.23.21.08h0l.21.09.32.14.07,0-.08,0-.08,0h0l-.3.1a8.28,8.28,0,0,1-1.35.29c-.26,0-.54.06-.81.08a.79.79,0,0,0-.65.38.8.8,0,0,0,0,.75,2.75,2.75,0,0,1,0,2A12.7,12.7,0,0,0,16.26,9.9h0a.67.67,0,0,0-.24,0,.59.59,0,0,0-.23,0A12.45,12.45,0,0,0,12,12.63a2.78,2.78,0,0,1,0-2,.8.8,0,0,0,0-.75.82.82,0,0,0-.64-.39,7,7,0,0,1-.8-.07,5.4,5.4,0,0,1-.7-.13h0l-.09,0h0l-.58-.16L9,9.08H9L8.77,9,8.7,9A15.24,15.24,0,0,1,11.09,8.07ZM29.8,14.14a5,5,0,0,1-1.13,2.36,2.22,2.22,0,0,1-1.09.15,16.43,16.43,0,0,1-2.72-.29h-.12a1.59,1.59,0,0,0-1.56,1.58V18l0,.08c.82,3.39,1.59,9.3.17,10.72C22.22,30,19.32,30.7,16,30.7S9.75,30,8.6,28.81c-1.41-1.42-.64-7.33.18-10.72l0-.08v-.08a1.57,1.57,0,0,0-1.57-1.58H7.11a16,16,0,0,1-2.69.29c-.88,0-1.08-.15-1.08-.15a4.92,4.92,0,0,1-1.13-2.36,3.94,3.94,0,0,1,0-2.48c.51-.84,2.86-1.49,5.37-1.89a1.3,1.3,0,0,0,.48.35l.28.1.31.11.1,0q.33.11.66.18l.15,0a9.39,9.39,0,0,0,1.06.18,4,4,0,0,0,.24,2.51,1.2,1.2,0,0,0,.89.71A.86.86,0,0,0,12,14a1.19,1.19,0,0,0,.86-.35A12.51,12.51,0,0,1,16,11.2a12.2,12.2,0,0,1,3.17,2.45A1.25,1.25,0,0,0,20,14a1,1,0,0,0,.24,0,1.21,1.21,0,0,0,.89-.71,4,4,0,0,0,.23-2.51,9.78,9.78,0,0,0,1.82-.37l.35-.11.1,0,.29-.1a1.25,1.25,0,0,0,.49-.36c2.52.4,4.86,1,5.37,1.89A3.94,3.94,0,0,1,29.8,14.14Z"/>
    <path d="M29.81,11.66c-.51-.84-2.85-1.49-5.37-1.89a1.25,1.25,0,0,1-.49.36l-.29.1-.1,0-.35.11a9.78,9.78,0,0,1-1.82.37,4,4,0,0,1-.23,2.51,1.21,1.21,0,0,1-.89.71A1,1,0,0,1,20,14a1.25,1.25,0,0,1-.86-.35A12.2,12.2,0,0,0,16,11.2a12.51,12.51,0,0,0-3.17,2.44A1.19,1.19,0,0,1,12,14a.86.86,0,0,1-.23,0,1.2,1.2,0,0,1-.89-.71,4,4,0,0,1-.24-2.51,9.39,9.39,0,0,1-1.06-.18l-.15,0q-.33-.07-.66-.18l-.1,0-.31-.11L8,10.12a1.3,1.3,0,0,1-.48-.35c-2.51.4-4.86,1-5.37,1.89a3.94,3.94,0,0,0,0,2.48A4.92,4.92,0,0,0,3.34,16.5s.2.15,1.08.15a16,16,0,0,0,2.69-.29h.12A1.57,1.57,0,0,1,8.8,17.93V18l0,.08C8,21.48,7.19,27.39,8.6,28.81,9.75,30,12.65,30.7,16,30.7s6.23-.74,7.38-1.89c1.42-1.42.65-7.33-.17-10.72l0-.08v-.08a1.59,1.59,0,0,1,1.56-1.58h.12a16.43,16.43,0,0,0,2.72.29,2.22,2.22,0,0,0,1.09-.15,5,5,0,0,0,1.13-2.36A3.94,3.94,0,0,0,29.81,11.66Zm-8.47,5.83H18.13a.62.62,0,1,1,0-1.23h3.21a.62.62,0,1,1,0,1.23Z"/>
    <path d="M30.93,11c-.67-1.1-2.59-1.89-5.9-2.44l-.41-.07A1.21,1.21,0,0,0,24,7.87l-.24-.11-.34-.16-.25-.1L23,7.4l-.63-.24-1-.32-.14,0h0l-.13,0-.36-.09h0l-.16,0-.28-.06h0l-.16,0-.27-.06-.71-.12-.14,0-.19,0-.43,0-.41,0h-.07c0-.74,0-1.78,0-1.94V4.19a4.54,4.54,0,0,1,0-.55l.12,0a1.2,1.2,0,0,0,.92-.74,1.22,1.22,0,0,0-.12-1.17L18,.54a1.23,1.23,0,0,0-1-.54h-.5a2.19,2.19,0,0,0-2.25,2h0v.24a.28.28,0,0,0,0,.09V6.21A17,17,0,0,0,8,7.86a1.25,1.25,0,0,0-.6.62L7,8.55C3.67,9.1,1.74,9.89,1.08,11c-.94,1.56.09,5.45,1.44,6.53a3,3,0,0,0,1.9.44,17,17,0,0,0,2.86-.3.27.27,0,0,1,.2.22,47.11,47.11,0,0,0-.81,4.83c-.39,3.65-.06,6,1,7C9.36,31.41,13.07,32,16,32s6.63-.59,8.3-2.27c1.08-1.07,1.41-3.37,1-7a44.35,44.35,0,0,0-.82-4.83.29.29,0,0,1,.21-.22,17.18,17.18,0,0,0,2.88.3,3,3,0,0,0,1.9-.44C30.83,16.44,31.87,12.55,30.93,11ZM11.09,8.07a13.74,13.74,0,0,1,3.55-.57h0a.84.84,0,0,0,.57-.23.82.82,0,0,0,.24-.57V2.36a1,1,0,0,1,1-1h.46l.72,1a1.38,1.38,0,0,0-.73.38,1.91,1.91,0,0,0-.38,1.47v.08c0,.19,0,1.73,0,2.38v0a.83.83,0,0,0,.24.58.79.79,0,0,0,.57.23h.47l.37,0,.39,0h.18l.12,0,.66.11.26.06h0l.13,0h0l.26.06h0l.13,0h0l.34.09.1,0h.07l.08,0h0c.3.08.61.18.92.29l.59.23.21.08h0l.21.09.32.14.07,0-.08,0-.08,0h0l-.3.1a8.28,8.28,0,0,1-1.35.29c-.26,0-.54.06-.81.08a.79.79,0,0,0-.65.38.8.8,0,0,0,0,.75,2.75,2.75,0,0,1,0,2A12.7,12.7,0,0,0,16.26,9.9h0a.67.67,0,0,0-.24,0,.59.59,0,0,0-.23,0A12.45,12.45,0,0,0,12,12.63a2.78,2.78,0,0,1,0-2,.8.8,0,0,0,0-.75.82.82,0,0,0-.64-.39,7,7,0,0,1-.8-.07,5.4,5.4,0,0,1-.7-.13h0l-.09,0h0l-.58-.16L9,9.08H9L8.77,9,8.7,9A15.24,15.24,0,0,1,11.09,8.07ZM29.8,14.14a5,5,0,0,1-1.13,2.36,2.22,2.22,0,0,1-1.09.15,16.43,16.43,0,0,1-2.72-.29h-.12a1.59,1.59,0,0,0-1.56,1.58V18l0,.08c.82,3.39,1.59,9.3.17,10.72C22.22,30,19.32,30.7,16,30.7S9.75,30,8.6,28.81c-1.41-1.42-.64-7.33.18-10.72l0-.08v-.08a1.57,1.57,0,0,0-1.57-1.58H7.11a16,16,0,0,1-2.69.29c-.88,0-1.08-.15-1.08-.15a4.92,4.92,0,0,1-1.13-2.36,3.94,3.94,0,0,1,0-2.48c.51-.84,2.86-1.49,5.37-1.89a1.3,1.3,0,0,0,.48.35l.28.1.31.11.1,0q.33.11.66.18l.15,0a9.39,9.39,0,0,0,1.06.18,4,4,0,0,0,.24,2.51,1.2,1.2,0,0,0,.89.71A.86.86,0,0,0,12,14a1.19,1.19,0,0,0,.86-.35A12.51,12.51,0,0,1,16,11.2a12.2,12.2,0,0,1,3.17,2.45A1.25,1.25,0,0,0,20,14a1,1,0,0,0,.24,0,1.21,1.21,0,0,0,.89-.71,4,4,0,0,0,.23-2.51,9.78,9.78,0,0,0,1.82-.37l.35-.11.1,0,.29-.1a1.25,1.25,0,0,0,.49-.36c2.52.4,4.86,1,5.37,1.89A3.94,3.94,0,0,1,29.8,14.14Z"/>
</svg>