<svg xmlns="http://www.w3.org/2000/svg" viewBox="0 0 32 32">
    <title>the-artopital</title>
    <path d="M16.07,0a15.28,15.28,0,0,1,2.69.24,13.34,13.34,0,0,0-1.6,1.56A36.59,36.59,0,0,0,14,6.12a88.06,88.06,0,0,0-5.06,9.42c-1.69,3.56-3.33,7.3-4.85,11.13A16,16,0,0,1,16.07,0Z"/>
    <path d="M31.53,19.88A16,16,0,0,1,19,31.73c.18-.39.35-.79.5-1.2.66-1.91,1.36-4,2-6.06,1-3.35,1.86-6.42,2.49-9.42.44-2.09.76-3.82,1-5.44a26,26,0,0,0,.31-5.29c0-.48-.08-1-.14-1.42A16,16,0,0,1,31.53,19.88Z"/>
    <path d="M22.86,1.55c0,.21,0,.41,0,.62a9.61,9.61,0,0,1-.08,1.57c-.29,1.77-.66,3.56-1,5.29l-.05.27c-.55,2.64-1.28,5.3-2,7.86-.25.89-.49,1.78-.73,2.68l-.66.08c-1.08.13-2.17.26-3.24.42-1.85.27-3.7.56-5.55.85L8,21.41l.48-1.08C10.24,16.4,11.92,13,13.69,9.8A42.4,42.4,0,0,1,18,3.27,14.13,14.13,0,0,1,20.36.94a.76.76,0,0,1,.44-.2A.58.58,0,0,1,21,.81c.49.23,1,.42,1.5.62Z"/>
    <path d="M18.49,21.55c-.12.45-.25.9-.38,1.34l-.64,2.21c-.45,1.55-.91,3.11-1.34,4.67a15.76,15.76,0,0,0-.33,1.63c0,.19-.05.38-.08.57h-.06c-.32,0-.63,0-.94,0a15.62,15.62,0,0,1-5.62-1.52A16.45,16.45,0,0,1,5.35,28l1.12-2.74L7.36,23l1.69-.2c1.05-.12,2.11-.24,3.16-.38q2.37-.33,4.74-.68Z"/>
</svg>