<svg xmlns="http://www.w3.org/2000/svg" viewBox="0 0 32 32">
    <title>aljurythm</title>
    <path d="M29.67,1.37C28.21,3.13,27,5.1,25.65,7a1.17,1.17,0,0,0-.14.19l-3.77,5.28a1.17,1.17,0,0,0-.17.24L9.9,29c-1,1.43,1.34,2.8,2.36,1.38l9.16-12.83V29.72a1.37,1.37,0,0,0,2.73,0v-16l1.2-1.68V29.72a1.37,1.37,0,0,0,2.73,0V8.26l1.19-1.71V29.72a1.37,1.37,0,0,0,2.73,0V2.34A1.38,1.38,0,0,0,29.67,1.37Z"/>
    <path d="M24,7.27l3-4.2c1-1.43-1.34-2.8-2.36-1.38L5.07,29c-1,1.43,1.34,2.8,2.36,1.38L24,7.27Z"/>
    <path d="M19.78,1.69.25,29c-1,1.43,1.34,2.8,2.36,1.38L22.14,3.07C23.16,1.64,20.8.27,19.78,1.69Z"/>
</svg>