<svg xmlns="http://www.w3.org/2000/svg" viewBox="0 0 32 32">
    <title>drg</title>
    <path d="M8,8v2h2V8ZM8,4V6h2V4ZM8,4V6h2V4ZM8,8v2h2V8Zm0,4v2h2V12Zm0,4v2h2V16Zm0,0v2h2V16Zm0-4v2h2V12ZM8,8v2h2V8ZM8,4V6h2V4ZM8,4V6h2V4ZM8,8v2h2V8Zm0,4v2h2V12Zm0,4v2h2V16ZM22,0H2A2,2,0,0,0,0,2V26a2,2,0,0,0,2,2H6v4l3-3,3,3V28h1.12a3.42,3.42,0,0,1,0-.45A2.2,2.2,0,0,1,13.69,26H12V24.62a2.28,2.28,0,0,1-.58-.62H6v2H4a2,2,0,0,1-2-2V22h9.06v-.78A2.22,2.22,0,0,1,11.43,20H6V2H22l0,9h.87a2.26,2.26,0,0,1,1.12.3V2A2,2,0,0,0,22,0ZM8,16v2h2V16Zm0-4v2h2V12ZM8,8v2h2V8ZM8,4V6h2V4ZM8,16v2h2V16Zm0-4v2h2V12ZM8,8v2h2V8ZM8,4V6h2V4ZM8,4V6h2V4ZM8,8v2h2V8Zm0,4v2h2V12Zm0,4v2h2V16Zm0,0v2h2V16Zm0-4v2h2V12ZM8,8v2h2V8ZM8,4V6h2V4ZM8,16v2h2V16Zm0-4v2h2V12ZM8,8v2h2V8ZM8,4V6h2V4ZM8,16v2h2V16Zm0-4v2h2V12Z"/>
    <path d="M30.8,20H30a1.22,1.22,0,0,1-1.19-1.22,1.16,1.16,0,0,1,.39-.86l.51-.5a1.26,1.26,0,0,0,0-1.81l-1.16-1.15a1.29,1.29,0,0,0-.91-.36,1.32,1.32,0,0,0-.91.36l-.48.49a1.19,1.19,0,0,1-.89.4,1.22,1.22,0,0,1-1.22-1.18v-.8a1.2,1.2,0,0,0-.15-.59A1.26,1.26,0,0,0,22.88,12H21.3A1.29,1.29,0,0,0,20,13.33v.79a1.22,1.22,0,0,1-1.22,1.18,1.19,1.19,0,0,1-.87-.38l-.5-.5a1.33,1.33,0,0,0-1.82,0l-1.17,1.14a1.28,1.28,0,0,0,0,1.81l.49.49a1.19,1.19,0,0,1,.4.88A1.21,1.21,0,0,1,14.16,20h-.79a.92.92,0,0,0-.29,0,1.25,1.25,0,0,0-1,1.22V22.8a1.29,1.29,0,0,0,1.31,1.26h.79a1.22,1.22,0,0,1,1.18,1.22,1.14,1.14,0,0,1-.26.72,1.07,1.07,0,0,1-.14.16l-.49.48a1.28,1.28,0,0,0,0,1.81l1.16,1.15a1.27,1.27,0,0,0,.91.37,1.33,1.33,0,0,0,.91-.37l.5-.49a1.15,1.15,0,0,1,.87-.39A1.22,1.22,0,0,1,20,29.9v.79A1.3,1.3,0,0,0,21.29,32h1.58a1.29,1.29,0,0,0,1.27-1.31V29.9a1.22,1.22,0,0,1,1.22-1.18,1.25,1.25,0,0,1,.89.4l.48.49a1.32,1.32,0,0,0,.91.36,1.29,1.29,0,0,0,.91-.36l1.16-1.15a1.29,1.29,0,0,0,0-1.82l-.51-.5a1.14,1.14,0,0,1-.39-.86A1.21,1.21,0,0,1,30,24.07h.79A1.21,1.21,0,0,0,32,22.8V21.22A1.19,1.19,0,0,0,30.8,20ZM24,25.7a4.13,4.13,0,0,1-1.92.47,3.93,3.93,0,0,1-1.5-.29A4.14,4.14,0,0,1,17.92,22h0a4.08,4.08,0,0,1,.52-2A4.14,4.14,0,0,1,22,17.85h.08a4.13,4.13,0,0,1,1.92.47,4.16,4.16,0,0,1,0,7.38Z"/>
</svg>