<svg xmlns="http://www.w3.org/2000/svg" viewBox="0 0 32 32">
    <title>hangcow</title>
    <path d="M20.63,0a2.33,2.33,0,0,0-1.76,1,2.8,2.8,0,0,0-.21.41,2.3,2.3,0,0,1,.5-.71A2.59,2.59,0,0,1,20.63,0Z"/>
    <path d="M16,32h0Z"/>
    <path d="M18.49,2a3.76,3.76,0,0,1,.17-.51A2.58,2.58,0,0,0,18.49,2Z"/>
    <path d="M28,5.06h-.75L25,5H24.1c-.16,0-.31,0-.51,0,0-.86,0-1.68,0-2.5A2.41,2.41,0,0,0,21.93.19,2.72,2.72,0,0,0,20.73,0h-.1a2.59,2.59,0,0,0-1.46.75,2.3,2.3,0,0,0-.5.71,3.76,3.76,0,0,0-.17.51,4.42,4.42,0,0,0-.1,1c0,.67,0,1.33,0,2h0c0-.68,0-1.34,0-2a4.42,4.42,0,0,1,.1-1,5.08,5.08,0,0,0-.13.71,20,20,0,0,0,0,2.28H13.62a20.24,20.24,0,0,0,0-2.28,4,4,0,0,0-.51-1.63A2.49,2.49,0,0,0,10.23.12,2.58,2.58,0,0,0,8.42,2.53c0,.81,0,1.62,0,2.49H7.74c-1.27,0-2.55,0-3.82,0A1,1,0,0,0,2.87,6.36a7.12,7.12,0,0,0,3.71,5,.78.78,0,0,1,.51.82c0,3.42,0,6.85,0,10.27a5.64,5.64,0,0,0,4.43,5.73.78.78,0,0,1,.69.73A3.85,3.85,0,0,0,16,32h0a3.85,3.85,0,0,0,3.76-3.1.78.78,0,0,1,.69-.73,5.64,5.64,0,0,0,4.43-5.7h0c0-2.53,0-5.06,0-7.59a24.5,24.5,0,0,1,.1-3.24h0l.08-.09h0a2.37,2.37,0,0,1,.27-.13,7.13,7.13,0,0,0,3.76-5C29.33,5.54,28.92,5.07,28,5.06ZM20.44,2.51c0-.17.35-.44.55-.47a.8.8,0,0,1,.52.51c.06.8,0,1.62,0,2.44H20.41C20.41,4.15,20.37,3.33,20.44,2.51Zm-.16,11.8a1.15,1.15,0,1,1-1.16,1.15A1.2,1.2,0,0,1,20.28,14.31ZM10.45,2.55A.78.78,0,0,1,11,2a.76.76,0,0,1,.57.5c.07.81,0,1.62,0,2.46H10.42C10.42,4.17,10.38,3.35,10.45,2.55ZM16,30a1.92,1.92,0,0,1-1.84-1.62h3.68A1.92,1.92,0,0,1,16,30Zm6.93-7.66a3.75,3.75,0,0,1-3.74,4q-1.58.05-3.17.06h0q-1.58,0-3.17-.06a3.75,3.75,0,0,1-3.74-4c0-3.68,0-7.35,0-11,0-1-.09-1.15-1-1.52A4.78,4.78,0,0,1,5.23,7.1h9.6a26.15,26.15,0,0,0,0,3.06A15.74,15.74,0,0,0,16,14.5v.11l0-.05,0,.05a11,11,0,0,0,5.77,5.78c.67.3,1,.61,1.14,1.08C22.91,21.77,22.91,22.06,22.91,22.35ZM23.54,5h0Z"/>
    <path d="M12,14.24a1.23,1.23,0,0,0,.06,2.46A1.23,1.23,0,0,0,12,14.24Z"/>
</svg>