<svg xmlns="http://www.w3.org/2000/svg" viewBox="0 0 32 32">
    <title>loform</title>
    <circle cx="16" cy="16" r="4.98277" />
    <path d="M19.93154,26.96245a4.9837,4.9837,0,0,1-4.98306,4.98236H9.96612V21.97939h4.98236A4.9831,4.9831,0,0,1,19.93154,26.96245Z" />
    <path d="M9.96612,21.97939v9.96541h-7.973A1.99312,1.99312,0,0,1,0,29.95169v-7.9723Z" />
    <path d="M9.96612,5.03756V21.97939H0V5.03826a4.98306,4.98306,0,0,1,9.96612-.0007Z" />
    <path d="M22.03459.05519v9.96541H17.05153a4.98294,4.98294,0,0,1-4.98306-4.98235v-.0007A4.983,4.983,0,0,1,17.05153.05519Z" />
    <path d="M32,2.04831v7.9723H22.03459V.05519h7.9723A1.99312,1.99312,0,0,1,32,2.04831Z" />
    <path d="M32,10.02061V26.96245a4.98271,4.98271,0,0,1-9.96541,0V10.02061Z" />
</svg>