<svg xmlns="http://www.w3.org/2000/svg" viewBox="0 0 32 32">
    <title>minim</title>
    <path d="M4.67,24.67A2.14,2.14,0,0,1,4,26.29,2.22,2.22,0,0,1,2.36,27H2.31a2.22,2.22,0,0,1-1.62-.69A2.14,2.14,0,0,1,0,24.67V14.19A8.87,8.87,0,0,1,2.69,7.71,8.83,8.83,0,0,1,9.17,5,8.08,8.08,0,0,1,16,8q2.29-3,6.82-3a8.83,8.83,0,0,1,6.48,2.69A8.88,8.88,0,0,1,32,14.19V24.67a2.21,2.21,0,0,1-.67,1.62,2.24,2.24,0,0,1-1.64.69h0a2.34,2.34,0,0,1-2.31-2.31V14.19a4.49,4.49,0,0,0-4.52-4.5,4.49,4.49,0,0,0-4.5,4.5V24.67A2.34,2.34,0,0,1,16,27h0a2.24,2.24,0,0,1-1.64-.69,2.14,2.14,0,0,1-.69-1.62V14.19a4.49,4.49,0,0,0-4.5-4.5,4.49,4.49,0,0,0-4.5,4.5Z"/>
</svg>