<svg xmlns="http://www.w3.org/2000/svg" viewBox="0 0 32 32">
    <title>octillect</title>
    <path d="M16,32a16.12,16.12,0,0,1-6.35-1.24,15.46,15.46,0,0,1-8.43-8.49A16.11,16.11,0,0,1,0,16,16.13,16.13,0,0,1,1.22,9.73,15.47,15.47,0,0,1,9.65,1.24,16.12,16.12,0,0,1,16,0a16.13,16.13,0,0,1,6.35,1.24,15.5,15.5,0,0,1,8.43,8.49A16.19,16.19,0,0,1,32,16a16.18,16.18,0,0,1-1.22,6.27,15.49,15.49,0,0,1-8.43,8.49A16.13,16.13,0,0,1,16,32Zm0-5.48a10.35,10.35,0,0,0,4-.77,10,10,0,0,0,3.25-2.14,9.77,9.77,0,0,0,2.18-3.31,11.36,11.36,0,0,0,.79-4.3,11.36,11.36,0,0,0-.79-4.3,9.79,9.79,0,0,0-2.18-3.32A10.05,10.05,0,0,0,20,6.25a10.78,10.78,0,0,0-8,0A10.07,10.07,0,0,0,8.75,8.38,9.69,9.69,0,0,0,6.57,11.7,11.29,11.29,0,0,0,5.78,16a11.29,11.29,0,0,0,.79,4.3,9.67,9.67,0,0,0,2.18,3.31A10,10,0,0,0,12,25.75,10.37,10.37,0,0,0,16,26.52Z"/>
</svg>