<svg xmlns="http://www.w3.org/2000/svg" viewBox="0 0 32 32">
    <title>scoutsencoder</title>
    <path d="M0,0V32H32V0ZM8.09,13.35a3.15,3.15,0,0,0,1,.59c.4.16,1.08.38,2,.68a11.3,11.3,0,0,1,2.38,1A3.22,3.22,0,0,1,14.72,17a4.71,4.71,0,0,1,.38,2,4.52,4.52,0,0,1-1.41,3.58,5.6,5.6,0,0,1-3.82,1.25,21.46,21.46,0,0,1-4.25-.53l-.8-.16.31-2.38a36.49,36.49,0,0,0,4.56.4c1.57,0,2.36-.65,2.36-2A1.3,1.3,0,0,0,11.43,18a10,10,0,0,0-2.09-.8,11.38,11.38,0,0,1-2.77-1.09A3.8,3.8,0,0,1,5.1,14.71a4.23,4.23,0,0,1-.46-2A4.16,4.16,0,0,1,6,9.3,5.8,5.8,0,0,1,9.8,8.17a17,17,0,0,1,2,.12c.69.08,1.69.24,3,.48l-.25,2.42c-2-.23-3.51-.35-4.42-.35-1.62,0-2.43.53-2.43,1.6A1.17,1.17,0,0,0,8.09,13.35Zm19.27-2.24H20.64v3.53H26v2.63H20.64v3.62h6.72v2.67H17.57V8.44h9.79Z"/>
</svg>